<mxfile host="app.diagrams.net" modified="2022-05-14T13:13:37.267Z" agent="5.0 (Macintosh; Intel Mac OS X 10_15_7) AppleWebKit/537.36 (KHTML, like Gecko) Chrome/101.0.4951.64 Safari/537.36" etag="NMMcJp-emo4XjPIgEW5F" version="18.0.4" type="github">
  <diagram id="Zk43_WUP__yVlsJPUqU2" name="第 1 页">
    <mxGraphModel dx="891" dy="643" grid="1" gridSize="10" guides="1" tooltips="1" connect="1" arrows="1" fold="1" page="1" pageScale="1" pageWidth="827" pageHeight="1169" background="#283618" math="0" shadow="0">
      <root>
        <mxCell id="0" />
        <mxCell id="1" parent="0" />
        <mxCell id="1oYq_vX_w6ZnTFW1Dtia-6" style="orthogonalLoop=1;jettySize=auto;html=1;exitX=0;exitY=1;exitDx=0;exitDy=0;entryX=0.5;entryY=0;entryDx=0;entryDy=0;fontSize=28;strokeWidth=2;rounded=0;elbow=vertical;dashed=1;sketch=0;shadow=0;strokeColor=#DDA15E;fontColor=#FEFAE0;labelBackgroundColor=#283618;" edge="1" parent="1" source="1oYq_vX_w6ZnTFW1Dtia-1" target="1oYq_vX_w6ZnTFW1Dtia-2">
          <mxGeometry relative="1" as="geometry" />
        </mxCell>
        <mxCell id="1oYq_vX_w6ZnTFW1Dtia-7" style="edgeStyle=none;rounded=0;orthogonalLoop=1;jettySize=auto;html=1;entryX=0.5;entryY=0;entryDx=0;entryDy=0;fontSize=28;strokeWidth=2;elbow=vertical;dashed=1;sketch=0;shadow=0;strokeColor=#DDA15E;fontColor=#FEFAE0;labelBackgroundColor=#283618;" edge="1" parent="1" target="1oYq_vX_w6ZnTFW1Dtia-3">
          <mxGeometry relative="1" as="geometry">
            <mxPoint x="390" y="150" as="sourcePoint" />
          </mxGeometry>
        </mxCell>
        <mxCell id="1oYq_vX_w6ZnTFW1Dtia-1" value="&lt;span style=&quot;font-size: 28px;&quot;&gt;&lt;b&gt;A&lt;/b&gt;&lt;/span&gt;" style="ellipse;whiteSpace=wrap;html=1;aspect=fixed;sketch=0;shadow=0;fillColor=#BC6C25;strokeColor=#DDA15E;fontColor=#FEFAE0;" vertex="1" parent="1">
          <mxGeometry x="340" y="110" width="60" height="60" as="geometry" />
        </mxCell>
        <mxCell id="1oYq_vX_w6ZnTFW1Dtia-8" style="edgeStyle=none;rounded=0;orthogonalLoop=1;jettySize=auto;html=1;fontSize=28;strokeWidth=2;elbow=vertical;dashed=1;sketch=0;shadow=0;strokeColor=#DDA15E;fontColor=#FEFAE0;labelBackgroundColor=#283618;" edge="1" parent="1" source="1oYq_vX_w6ZnTFW1Dtia-2" target="1oYq_vX_w6ZnTFW1Dtia-4">
          <mxGeometry relative="1" as="geometry" />
        </mxCell>
        <mxCell id="1oYq_vX_w6ZnTFW1Dtia-9" style="edgeStyle=none;rounded=0;orthogonalLoop=1;jettySize=auto;html=1;entryX=0;entryY=0;entryDx=0;entryDy=0;fontSize=28;strokeWidth=2;elbow=vertical;dashed=1;sketch=0;shadow=0;strokeColor=#DDA15E;fontColor=#FEFAE0;labelBackgroundColor=#283618;" edge="1" parent="1" source="1oYq_vX_w6ZnTFW1Dtia-2" target="1oYq_vX_w6ZnTFW1Dtia-5">
          <mxGeometry relative="1" as="geometry" />
        </mxCell>
        <mxCell id="1oYq_vX_w6ZnTFW1Dtia-2" value="&lt;span style=&quot;font-size: 28px;&quot;&gt;&lt;b&gt;B&lt;/b&gt;&lt;/span&gt;" style="ellipse;whiteSpace=wrap;html=1;aspect=fixed;sketch=0;shadow=0;fillColor=#BC6C25;strokeColor=#DDA15E;fontColor=#FEFAE0;" vertex="1" parent="1">
          <mxGeometry x="280" y="210" width="60" height="60" as="geometry" />
        </mxCell>
        <mxCell id="1oYq_vX_w6ZnTFW1Dtia-3" value="&lt;span style=&quot;font-size: 28px;&quot;&gt;&lt;b&gt;C&lt;/b&gt;&lt;/span&gt;" style="ellipse;whiteSpace=wrap;html=1;aspect=fixed;sketch=0;shadow=0;fillColor=#BC6C25;strokeColor=#DDA15E;fontColor=#FEFAE0;" vertex="1" parent="1">
          <mxGeometry x="400" y="210" width="60" height="60" as="geometry" />
        </mxCell>
        <mxCell id="1oYq_vX_w6ZnTFW1Dtia-4" value="&lt;span style=&quot;font-size: 28px;&quot;&gt;&lt;b&gt;D&lt;/b&gt;&lt;/span&gt;" style="ellipse;whiteSpace=wrap;html=1;aspect=fixed;sketch=0;shadow=0;fillColor=#BC6C25;strokeColor=#DDA15E;fontColor=#FEFAE0;" vertex="1" parent="1">
          <mxGeometry x="210" y="310" width="60" height="60" as="geometry" />
        </mxCell>
        <mxCell id="1oYq_vX_w6ZnTFW1Dtia-5" value="&lt;span style=&quot;font-size: 28px;&quot;&gt;&lt;b&gt;E&lt;/b&gt;&lt;/span&gt;" style="ellipse;whiteSpace=wrap;html=1;aspect=fixed;sketch=0;shadow=0;fillColor=#BC6C25;strokeColor=#DDA15E;fontColor=#FEFAE0;" vertex="1" parent="1">
          <mxGeometry x="350" y="310" width="60" height="60" as="geometry" />
        </mxCell>
        <mxCell id="1oYq_vX_w6ZnTFW1Dtia-10" value="A" style="rounded=0;whiteSpace=wrap;html=1;fontSize=28;fillColor=#BC6C25;strokeColor=#DDA15E;fontColor=#FEFAE0;" vertex="1" parent="1">
          <mxGeometry x="195" y="410" width="70" height="60" as="geometry" />
        </mxCell>
        <mxCell id="1oYq_vX_w6ZnTFW1Dtia-11" value="B" style="rounded=0;whiteSpace=wrap;html=1;fontSize=28;fillColor=#BC6C25;strokeColor=#DDA15E;fontColor=#FEFAE0;" vertex="1" parent="1">
          <mxGeometry x="265" y="410" width="70" height="60" as="geometry" />
        </mxCell>
        <mxCell id="1oYq_vX_w6ZnTFW1Dtia-12" value="C" style="rounded=0;whiteSpace=wrap;html=1;fontSize=28;fillColor=#BC6C25;strokeColor=#DDA15E;fontColor=#FEFAE0;" vertex="1" parent="1">
          <mxGeometry x="335" y="410" width="70" height="60" as="geometry" />
        </mxCell>
        <mxCell id="1oYq_vX_w6ZnTFW1Dtia-13" value="D" style="rounded=0;whiteSpace=wrap;html=1;fontSize=28;fillColor=#BC6C25;strokeColor=#DDA15E;fontColor=#FEFAE0;" vertex="1" parent="1">
          <mxGeometry x="405" y="410" width="70" height="60" as="geometry" />
        </mxCell>
        <mxCell id="1oYq_vX_w6ZnTFW1Dtia-14" value="E" style="rounded=0;whiteSpace=wrap;html=1;fontSize=28;fillColor=#BC6C25;strokeColor=#DDA15E;fontColor=#FEFAE0;" vertex="1" parent="1">
          <mxGeometry x="475" y="410" width="70" height="60" as="geometry" />
        </mxCell>
        <mxCell id="1oYq_vX_w6ZnTFW1Dtia-15" value="1" style="text;html=1;align=center;verticalAlign=middle;resizable=0;points=[];autosize=1;strokeColor=none;fillColor=none;fontSize=28;fontColor=#FEFAE0;" vertex="1" parent="1">
          <mxGeometry x="215" y="470" width="30" height="40" as="geometry" />
        </mxCell>
        <mxCell id="1oYq_vX_w6ZnTFW1Dtia-16" value="2" style="text;html=1;align=center;verticalAlign=middle;resizable=0;points=[];autosize=1;strokeColor=none;fillColor=none;fontSize=28;fontColor=#FEFAE0;" vertex="1" parent="1">
          <mxGeometry x="285" y="470" width="30" height="40" as="geometry" />
        </mxCell>
        <mxCell id="1oYq_vX_w6ZnTFW1Dtia-17" value="3" style="text;html=1;align=center;verticalAlign=middle;resizable=0;points=[];autosize=1;strokeColor=none;fillColor=none;fontSize=28;fontColor=#FEFAE0;" vertex="1" parent="1">
          <mxGeometry x="355" y="470" width="30" height="40" as="geometry" />
        </mxCell>
        <mxCell id="1oYq_vX_w6ZnTFW1Dtia-18" value="4" style="text;html=1;align=center;verticalAlign=middle;resizable=0;points=[];autosize=1;strokeColor=none;fillColor=none;fontSize=28;fontColor=#FEFAE0;" vertex="1" parent="1">
          <mxGeometry x="425" y="470" width="30" height="40" as="geometry" />
        </mxCell>
        <mxCell id="1oYq_vX_w6ZnTFW1Dtia-19" value="5" style="text;html=1;align=center;verticalAlign=middle;resizable=0;points=[];autosize=1;strokeColor=none;fillColor=none;fontSize=28;fontColor=#FEFAE0;" vertex="1" parent="1">
          <mxGeometry x="495" y="470" width="30" height="40" as="geometry" />
        </mxCell>
        <mxCell id="1oYq_vX_w6ZnTFW1Dtia-20" value="B = 1 * 2" style="text;html=1;align=center;verticalAlign=middle;resizable=0;points=[];autosize=1;strokeColor=none;fillColor=none;fontSize=28;sketch=0;shadow=0;fontColor=#FEFAE0;" vertex="1" parent="1">
          <mxGeometry x="125" y="220" width="120" height="40" as="geometry" />
        </mxCell>
        <mxCell id="1oYq_vX_w6ZnTFW1Dtia-21" value="C = 1 * 2 + 1" style="text;html=1;align=center;verticalAlign=middle;resizable=0;points=[];autosize=1;strokeColor=none;fillColor=none;fontSize=28;sketch=0;shadow=0;fontColor=#FEFAE0;" vertex="1" parent="1">
          <mxGeometry x="465" y="220" width="170" height="40" as="geometry" />
        </mxCell>
        <mxCell id="1oYq_vX_w6ZnTFW1Dtia-26" style="rounded=0;orthogonalLoop=1;jettySize=auto;html=1;entryX=1.035;entryY=0.389;entryDx=0;entryDy=0;entryPerimeter=0;dashed=1;fontSize=28;strokeWidth=2;elbow=vertical;edgeStyle=orthogonalEdgeStyle;sketch=0;shadow=0;strokeColor=#DDA15E;fontColor=#FEFAE0;labelBackgroundColor=#283618;" edge="1" parent="1" source="1oYq_vX_w6ZnTFW1Dtia-25" target="1oYq_vX_w6ZnTFW1Dtia-1">
          <mxGeometry relative="1" as="geometry">
            <Array as="points">
              <mxPoint x="700" y="300" />
              <mxPoint x="700" y="133" />
            </Array>
          </mxGeometry>
        </mxCell>
        <mxCell id="1oYq_vX_w6ZnTFW1Dtia-25" value="parent = 3 / 2" style="text;html=1;align=center;verticalAlign=middle;resizable=0;points=[];autosize=1;strokeColor=none;fillColor=none;fontSize=28;sketch=0;shadow=0;fontColor=#FEFAE0;" vertex="1" parent="1">
          <mxGeometry x="470" y="280" width="180" height="40" as="geometry" />
        </mxCell>
      </root>
    </mxGraphModel>
  </diagram>
</mxfile>
